<?xml version="1.0" encoding="UTF-8"?>
<svg width="24px" height="24px" viewBox="0 0 24 24" version="1.1" xmlns="http://www.w3.org/2000/svg"
     xmlns:xlink="http://www.w3.org/1999/xlink">
    <!-- Generator: Sketch 59.1 (86144) - https://sketch.com -->
    <title>Icon-Money</title>
    <desc>Created with Sketch.</desc>
    <g id="Icon-Money" stroke="none" stroke-width="1" fill="none" fill-rule="evenodd">
        <path d="M22.9789508,7.32299223 C22.3820596,5.90537565 21.5115933,4.62454663 20.4172927,3.53024611 C19.3229922,2.4359456 18.0421632,1.56547927 16.6245466,0.968588083 C15.1571891,0.346826425 13.5903497,0.0235103627 11.9737694,0.0235103627 C10.3571891,0.0235103627 8.79034974,0.334391192 7.32299223,0.968588083 C5.90537565,1.56547927 4.62454663,2.4359456 3.53024611,3.53024611 C2.4359456,4.62454663 1.56547927,5.90537565 0.968588083,7.32299223 C0.346826425,8.79034974 0.0235103627,10.3571891 0.0235103627,11.9737694 C0.0235103627,13.5903497 0.334391192,15.1571891 0.968588083,16.6245466 C1.56547927,18.0421632 2.4359456,19.3229922 3.53024611,20.4172927 C4.62454663,21.5115933 5.90537565,22.3820596 7.32299223,22.9789508 C8.79034974,23.6007124 10.3571891,23.9240285 11.9737694,23.9240285 C13.5903497,23.9240285 15.1571891,23.6131477 16.6245466,22.9789508 C18.0421632,22.3820596 19.3229922,21.5115933 20.4172927,20.4172927 C21.5115933,19.3229922 22.3820596,18.0421632 22.9789508,16.6245466 C23.6007124,15.1571891 23.9240285,13.5903497 23.9240285,11.9737694 C23.9240285,10.3571891 23.6007124,8.79034974 22.9789508,7.32299223 Z M15.8784326,13.2421632 C16.4380181,13.2421632 16.8981218,13.7022668 16.8981218,14.2618523 C16.8981218,14.8214378 16.4380181,15.2815415 15.8784326,15.2815415 L12.9934585,15.2815415 L12.9934585,16.748899 C12.9934585,17.3084845 12.5333549,17.7685881 11.9737694,17.7685881 C11.4141839,17.7685881 10.9540803,17.3084845 10.9540803,16.748899 L10.9540803,15.2815415 L8.06910622,15.2815415 C7.50952073,15.2815415 7.0494171,14.8214378 7.0494171,14.2618523 C7.0494171,13.7022668 7.50952073,13.2421632 8.06910622,13.2421632 L10.9540803,13.2421632 L10.9540803,11.7996762 L8.06910622,11.7996762 C7.50952073,11.7996762 7.0494171,11.3395725 7.0494171,10.779987 C7.0494171,10.2204016 7.50952073,9.76029793 8.06910622,9.76029793 L9.38724093,9.76029793 L7.77066062,8.14371762 C7.37273316,7.74579016 7.37273316,7.09915803 7.77066062,6.70123057 C7.95718912,6.51470207 8.21832902,6.40278497 8.49190415,6.40278497 C8.76547927,6.40278497 9.01418394,6.51470207 9.21314767,6.70123057 L11.9115933,9.39967617 L14.6100389,6.70123057 C14.7965674,6.51470207 15.0577073,6.40278497 15.3312824,6.40278497 C15.6048575,6.40278497 15.8535622,6.51470207 16.0525259,6.70123057 C16.4504534,7.09915803 16.4504534,7.74579016 16.0525259,8.14371762 L14.4359456,9.76029793 L15.8908679,9.76029793 C16.4504534,9.76029793 16.910557,10.2204016 16.910557,10.779987 C16.910557,11.3395725 16.4504534,11.7996762 15.8908679,11.7996762 L13.0058938,11.7996762 L13.0058938,13.2421632 L15.8784326,13.2421632 L15.8784326,13.2421632 Z"
              id="形状" fill="#157efa" fill-rule="nonzero"></path>
    </g>
</svg>