<?xml version="1.0" encoding="UTF-8"?>
<svg width="24px" height="24px" viewBox="0 0 24 24" version="1.1" xmlns="http://www.w3.org/2000/svg"
     xmlns:xlink="http://www.w3.org/1999/xlink">
    <!-- Generator: Sketch 59.1 (86144) - https://sketch.com -->
    <title>Icon-Project02</title>
    <desc>Created with Sketch.</desc>
    <g id="Icon-Project02" stroke="none" stroke-width="1" fill="none" fill-rule="evenodd">
        <path d="M18.471875,12.0885417 L10.471875,12.0885417 C9.80520833,12.0885417 9.271875,11.5552083 9.271875,10.8885417 C9.271875,10.221875 9.80520833,9.68854167 10.471875,9.68854167 L18.471875,9.68854167 C19.1385417,9.68854167 19.671875,10.221875 19.671875,10.8885417 C19.671875,11.5552083 19.1385417,12.0885417 18.471875,12.0885417 Z M4.80520833,15.621875 C4.80520833,16.3552083 5.33854167,16.8885417 6.071875,16.8885417 C6.80520833,16.8885417 7.33854167,16.2885417 7.33854167,15.621875 C7.33854167,14.9552083 6.80520833,14.3552083 6.071875,14.3552083 C5.33854167,14.3552083 4.80520833,14.8885417 4.80520833,15.621875 L4.80520833,15.621875 Z M4.80520833,10.8885417 C4.80520833,11.621875 5.33854167,12.1552083 6.071875,12.1552083 C6.80520833,12.1552083 7.33854167,11.5552083 7.33854167,10.8885417 C7.33854167,10.221875 6.80520833,9.621875 6.071875,9.621875 C5.33854167,9.621875 4.80520833,10.221875 4.80520833,10.8885417 L4.80520833,10.8885417 Z M18.471875,16.821875 L10.471875,16.821875 C9.80520833,16.821875 9.271875,16.2885417 9.271875,15.621875 C9.271875,14.9552083 9.80520833,14.421875 10.471875,14.421875 L18.471875,14.421875 C19.1385417,14.421875 19.671875,14.9552083 19.671875,15.621875 C19.671875,16.2885417 19.1385417,16.821875 18.471875,16.821875 Z M23.9385417,20.6885417 L23.9385417,5.68854167 C23.9385417,3.88854167 22.271875,4.021875 22.271875,4.021875 L12.871875,4.021875 C12.3385417,4.021875 12.0052083,3.75520833 12.0052083,3.75520833 C12.0052083,3.75520833 11.6052083,3.08854167 10.871875,2.021875 C10.2052083,0.821875 9.33854167,1.021875 9.33854167,1.021875 L2.071875,1.021875 C0.00520833333,1.021875 0.00520833333,2.95520833 0.00520833333,2.95520833 L0.00520833333,20.5552083 C0.00520833333,22.7552083 1.671875,22.4885417 1.671875,22.4885417 L22.471875,22.4885417 C24.2052083,22.4885417 23.9385417,20.6885417 23.9385417,20.6885417 L23.9385417,20.6885417 Z"
              id="形状" fill="#157efa" fill-rule="nonzero"></path>
    </g>
</svg>