<?xml version="1.0" encoding="UTF-8"?>
<svg width="24px" height="24px" viewBox="0 0 24 24" version="1.1" xmlns="http://www.w3.org/2000/svg" xmlns:xlink="http://www.w3.org/1999/xlink">
    <!-- Generator: Sketch 59.1 (86144) - https://sketch.com -->
    <title>Icon-Sapling </title>
    <desc>Created with Sketch.</desc>
    <g id="Icon-Sapling-" stroke="none" stroke-width="1" fill="none" fill-rule="evenodd">
        <path d="M18.0398174,1.81200843 C18.9207163,1.72212079 19.6892556,1.7940309 20.3454354,2.02773876 C21.0016152,2.26144663 21.5499298,2.58953652 21.9903792,3.01200843 C22.4308287,3.43448034 22.7499298,3.92436798 22.9476826,4.48167135 C23.1454354,5.03897472 23.2128511,5.59178371 23.1499298,6.14009831 C23.0870084,6.68841292 22.8982444,7.20976124 22.5836376,7.70414326 C22.2690309,8.19852528 21.8150983,8.58953652 21.2218399,8.87717697 C20.4308287,9.27268258 19.6577949,9.62773876 18.9027388,9.94234551 C18.1476826,10.2569522 17.4240871,10.5176264 16.7319522,10.724368 C16.0398174,10.9311096 15.3971208,11.0704354 14.8038624,11.1423455 C14.2106039,11.2142556 13.6802669,11.1962781 13.2128511,11.0884129 C12.9791433,12.1670646 12.7813904,13.3490871 12.6195927,14.6344803 C12.4577949,15.9198736 12.3768961,17.2367275 12.3768961,18.5850421 C12.3768961,19.2142556 12.3903792,19.8434691 12.4173455,20.4726826 C12.4443118,21.1018961 12.4757725,21.677177 12.5117275,22.1985253 C12.5476826,22.7917837 12.5926264,23.3670646 12.646559,23.924368 L8.70948034,23.924368 C8.72745787,23.5827949 8.75442416,23.1333567 8.79037921,22.5760534 C8.80835674,22.1086376 8.82633427,21.4974017 8.8443118,20.7423455 C8.86228933,19.9872893 8.87127809,19.0614466 8.87127809,17.9648174 C8.87127809,16.5625702 8.96116573,15.2232444 9.14094101,13.9468399 C9.32071629,12.6704354 9.52745787,11.5198736 9.76116573,10.4951545 C9.06004213,10.6569522 8.31397472,10.6479635 7.52296348,10.4681882 C6.73195225,10.2884129 5.94094101,9.98728933 5.14992978,9.56481742 C4.35891854,9.14234551 3.5948736,8.62099719 2.85779494,8.00077247 C2.12071629,7.38054775 1.46453652,6.71088483 0.889255618,5.99178371 C0.511727528,5.52436798 0.260042135,5.05695225 0.134199438,4.58953652 C0.00835674157,4.12212079 -0.0141151685,3.66369382 0.0667837079,3.21425562 C0.147682584,2.76481742 0.309480337,2.34234551 0.552176966,1.94683989 C0.794873596,1.55133427 1.07801966,1.19178371 1.40161517,0.868188202 C1.68925562,0.598525281 2.03082865,0.391783708 2.42633427,0.247963483 C2.82183989,0.104143258 3.24880618,0.023244382 3.70723315,0.00526685393 C4.16566011,-0.0127106742 4.63307584,0.023244382 5.10948034,0.113132022 C5.58588483,0.203019663 6.04880618,0.346839888 6.49824438,0.544592697 C6.94768258,0.760323034 7.42858146,1.05245787 7.94094101,1.42099719 C8.45330056,1.78953652 8.94768258,2.21200843 9.42408708,2.68841292 C9.90049157,3.16481742 10.340941,3.67268258 10.7454354,4.21200843 C11.1499298,4.75133427 11.4870084,5.29066011 11.7566713,5.82998596 C12.0443118,5.32661517 12.4218399,4.84571629 12.8892556,4.38728933 C13.3566713,3.92886236 13.8735253,3.5198736 14.4398174,3.16032303 C15.0061096,2.80077247 15.599368,2.49964888 16.2195927,2.25695225 C16.8398174,2.01425562 17.446559,1.86594101 18.0398174,1.81200843 L18.0398174,1.81200843 Z" id="路径" fill="#000000" fill-rule="nonzero"></path>
    </g>
</svg>