<?xml version="1.0" encoding="UTF-8"?>
<svg width="24px" height="24px" viewBox="0 0 24 24" version="1.1" xmlns="http://www.w3.org/2000/svg"
     xmlns:xlink="http://www.w3.org/1999/xlink">
    <!-- Generator: Sketch 59.1 (86144) - https://sketch.com -->
    <title>Icon-Application</title>
    <desc>Created with Sketch.</desc>
    <g id="Icon-Application-" stroke="none" stroke-width="1" fill="none" fill-rule="evenodd">
        <g transform="translate(1.000000, 0.000000)" fill="#157efa" fill-rule="nonzero" id="形状">
            <path d="M11.7053264,22.0468213 L19.4372852,17.5794674 C19.7593761,17.4153619 19.9595224,17.0817848 19.9527491,16.7203608 L19.9527491,7.78565292 L12.2207904,12.2530069 C12.0489691,12.4248282 11.8771478,12.4248282 11.7053264,12.4248282 L11.7053264,22.0468213 Z M20.4682131,5.03651202 C21.3273196,5.55197593 21.8427835,6.41108247 21.8427835,7.27018901 L21.8427835,16.7203608 C21.8427835,17.7512887 21.3273196,18.6103952 20.4682131,18.9540378 L12.2207904,23.593213 C11.3616838,24.108677 10.330756,24.108677 9.64347079,23.593213 L1.39604812,18.9540378 C0.536941575,18.4385739 0.0214776659,17.5794673 0.0214776659,16.7203608 L0.0214776659,7.27018901 C0.0214776659,6.23926116 0.536941575,5.38015465 1.39604812,5.03651202 L9.64347079,0.397336759 C10.5025773,-0.11812715 11.5335051,-0.11812715 12.2207904,0.397336759 L20.4682131,5.03651202 Z"></path>
        </g>
    </g>
</svg>