<?xml version="1.0" encoding="UTF-8"?>
<svg width="24px" height="24px" viewBox="0 0 24 24" version="1.1" xmlns="http://www.w3.org/2000/svg" xmlns:xlink="http://www.w3.org/1999/xlink">
    <!-- Generator: Sketch 59.1 (86144) - https://sketch.com -->
    <title>Icon-Sort</title>
    <desc>Created with Sketch.</desc>
    <g id="Icon-Sort" stroke="none" stroke-width="1" fill="none" fill-rule="evenodd">
        <g fill="#000000" fill-rule="nonzero">
            <path d="M12.0068766,13.4747505 C11.7180592,13.4747505 11.4429949,13.417548 11.1816839,13.2888425 L1.15559279,8.69834649 C0.454179003,8.38373306 0.0140762376,7.69730374 0.000323026197,6.92507076 C-0.0134301852,6.15283778 0.412919369,5.46640846 1.10057994,5.13749441 L11.1266711,0.203783703 C11.6767995,-0.0679279011 12.3369537,-0.0679279011 12.8870821,0.203783703 L22.8994201,5.13749441 C23.5870806,5.48070907 24.0134302,6.16713839 23.999677,6.92507076 C23.9859238,7.69730374 23.545821,8.36943244 22.8444072,8.69834649 L12.8458225,13.2888425 C12.5845115,13.417548 12.295694,13.4747505 12.0068766,13.4747505 Z M2.0082919,6.91077015 L11.9518638,11.472665 C11.9931234,11.4869656 12.034383,11.4869656 12.0618895,11.472665 L21.9917081,6.91077015 L12.0618895,2.00566066 C12.0206298,1.99136005 11.9793702,1.99136005 11.9381105,2.00566066 L2.0082919,6.91077015 Z M12.0206298,24 C11.7455656,24 11.4567481,23.9284969 11.1954371,23.7997914 L1.49942307,19.4381052 C1.01806067,19.223596 0.784256078,18.637271 1.00430746,18.122449 C1.21060563,17.6219276 1.7744873,17.3788172 2.26960291,17.607627 L11.9931234,21.9836139 L21.2627879,17.6219276 C21.7441503,17.3931178 22.308032,17.6219276 22.5280834,18.122449 C22.7481347,18.6229704 22.5280834,19.2092954 22.046721,19.4381052 L12.7908097,23.8140921 C12.5570051,23.9427976 12.295694,24 12.0206298,24 L12.0206298,24 Z" id="形状"></path>
            <path d="M21.7763132,12 L11.9790657,16.2117376 L2.18181818,12 L2.18181818,13.9884925 C2.18181818,14.3613349 2.40511727,14.6927503 2.7540221,14.83084 L10.9742198,18.310702 C11.2952123,18.4626007 11.6441171,18.5454545 11.9930219,18.5454545 C12.3419267,18.5454545 12.6908316,18.4626007 13.011824,18.310702 L21.2459779,14.8170311 C21.5948827,14.6651323 21.8181818,14.3337169 21.8181818,13.9746835 L21.7763132,12 L21.7763132,12 Z" id="路径"></path>
            <polygon id="路径" points="1.79605945 7.81961346 10.5067404 12 13.4794331 12 22.9090909 7.53328561 21.9412375 5.09949893 12.3594884 1.09090909 3.17870722 5.09949893 1.09090909 6.84609878"></polygon>
        </g>
    </g>
</svg>