<?xml version="1.0" encoding="UTF-8"?>
<svg width="24px" height="24px" viewBox="0 0 24 24" version="1.1" xmlns="http://www.w3.org/2000/svg"
     xmlns:xlink="http://www.w3.org/1999/xlink">
    <!-- Generator: Sketch 59.1 (86144) - https://sketch.com -->
    <title>Icon-Rocket</title>
    <desc>Created with Sketch.</desc>
    <g id="Icon-Rocket" stroke="none" stroke-width="1" fill="none" fill-rule="evenodd">
        <path d="M4.9137326,16.8267423 C5.60993992,15.995931 6.98777797,16.0048783 7.99105598,16.8467286 C8.99324644,17.6876662 9.24077316,19.0425618 8.54402233,19.8729171 C7.84672773,20.7028161 3.39825062,24.3555226 2.39551638,23.5141287 C1.39278213,22.6727347 4.21698177,17.6570977 4.9137326,16.8267423 Z M9.23990572,5.58498356 C12.1136036,2.16024375 16.4365104,0.665983756 20.5697058,1.24206347 C20.8504207,1.28212182 21.084021,1.47813572 21.1722164,1.74762989 C22.457266,5.7179976 21.7363721,10.2347052 18.8611303,13.6590762 C18.4554033,14.1414984 18.0136993,14.5928056 17.5396683,15.0086475 C17.4064107,15.1257971 17.3187438,15.2861951 17.2920963,15.4616133 C17.0284531,17.1418817 16.3080753,18.8021522 15.1075832,20.2328429 C14.571074,20.8733285 13.9563692,21.4435669 13.277961,21.9306989 C12.7024169,22.3438332 11.9313828,21.789524 12.1184783,21.1060418 C12.4135295,20.0266524 12.5043048,18.8814938 12.403461,17.7173254 C12.3063978,17.7424447 12.2099471,17.7745646 12.1121651,17.7972275 C11.0900044,17.063835 10.0957524,16.2923062 9.13151193,15.4842731 C8.16838631,14.675188 7.23583194,13.8296696 6.33611144,12.950543 C6.3414504,12.8503112 6.35633381,12.7497482 6.36367295,12.6493414 C5.19967956,12.7521854 4.08722508,13.0409802 3.07592543,13.518439 C2.43531562,13.8213775 1.75608282,13.1587683 2.06245473,12.5197717 C2.42488098,11.7672582 2.88004972,11.0630549 3.41731587,10.4235439 C4.55861807,9.05481068 6.05244341,8.02418084 7.73721311,7.44318772 C7.90539839,7.3865927 8.04817009,7.27237798 8.14030687,7.12072014 C8.46751659,6.58168065 8.83526632,6.06831838 9.23990572,5.58498356 Z M16.4650081,6.74620915 C15.4076129,5.85894919 13.8341164,5.98334045 12.9292673,7.02572378 C12.3303071,7.715724 12.1500669,8.67513182 12.4577723,9.53546375 C12.7654776,10.3957957 13.5132837,11.0232795 14.4139778,11.176915 C15.3146718,11.3305506 16.2282057,10.9864493 16.8037149,10.2767713 C17.6731367,9.20466093 17.5224034,7.63346912 16.4650081,6.74620915 Z"
              id="形状结合" fill="#157efa" fill-rule="nonzero"></path>
    </g>
</svg>