<?xml version="1.0" encoding="UTF-8"?>
<svg width="24px" height="24px" viewBox="0 0 24 24" version="1.1" xmlns="http://www.w3.org/2000/svg"
     xmlns:xlink="http://www.w3.org/1999/xlink">
    <!-- Generator: Sketch 59.1 (86144) - https://sketch.com -->
    <title>Icon-Tech</title>
    <desc>Created with Sketch.</desc>
    <g id="Icon-Tech" stroke="none" stroke-width="1" fill="none" fill-rule="evenodd">
        <path d="M16.1329165,0.0156460817 C16.8467942,0.0156460817 17.4307171,0.599815 17.4307171,1.31342207 L17.4307171,1.593158 C17.4307171,2.30678966 16.8468188,2.89093397 16.1329165,2.89093397 L15.8927142,2.89064608 L15.8932026,10.0883044 L21.0608204,18.3870324 C21.6077459,18.9815473 21.9427505,19.7736971 21.9427505,20.6403413 C21.9427505,22.4741958 20.4427243,23.9747631 18.6088698,23.9747631 L4.35313601,23.9747631 C2.51928149,23.9747631 1.01871421,22.4741958 1.01871421,20.6403413 C1.01871421,20.1872264 1.1103256,19.7544753 1.27593947,19.3596876 L1.27611454,19.3597106 C1.41533449,19.0283064 1.60469251,18.7262437 1.83512256,18.4606479 L7.04855851,10.0883044 L7.04771421,2.89064608 L6.82913849,2.89093397 C6.11526084,2.89093397 5.53136252,2.30676505 5.53136252,1.593158 L5.53136252,1.31344666 C5.53136252,0.599815 6.11523625,0.0156460817 6.82913849,0.0156460817 L16.1329165,0.0156460817 Z M13.0977142,2.89064608 L9.84371421,2.89064608 L9.84377776,10.7972377 L7.39771421,15.0996461 L15.5437142,15.0996461 L13.0979588,10.7972377 L13.0977142,2.89064608 Z"
              id="形状结合" fill="#157efa" fill-rule="nonzero"></path>
    </g>
</svg>