<?xml version="1.0" encoding="UTF-8"?>
<svg width="24px" height="24px" viewBox="0 0 24 24" version="1.1" xmlns="http://www.w3.org/2000/svg"
     xmlns:xlink="http://www.w3.org/1999/xlink">
    <!-- Generator: Sketch 59.1 (86144) - https://sketch.com -->
    <title>Icon-Project</title>
    <desc>Created with Sketch.</desc>
    <g id="Icon-Project" stroke="none" stroke-width="1" fill="none" fill-rule="evenodd">
        <path d="M21.3399307,2.22239848 C21.1525039,2.03497169 20.9650771,1.61326142 20.5433669,1.42583464 C20.3559401,1.23840785 20.1685133,0.816697581 19.9342298,0.629270796 C19.746803,0.254417227 19.3250927,0.0201337405 18.9502392,0.0201337405 L5.83036411,0.0201337405 C5.45551054,0.0201337405 5.03380027,0.0201337405 4.84637349,0.207560525 C4.6589467,0.39498731 4.47151992,0.39498731 4.23723643,0.582414094 L3.62809937,1.23840785 L2.59725205,2.22239848 C2.40982526,2.59725205 2.03497169,3.01896232 1.80068821,3.39381589 L22.2770646,3.39381589 C21.902211,3.01896232 21.7147843,2.59725205 21.3399307,2.22239848 L21.3399307,2.22239848 Z M21.5273575,15.5297003 L2.40982526,15.5297003 C1.61326142,15.5297003 1.00412437,15.7171271 0.629270796,16.1388374 C0.254417227,16.7479744 0.0201337405,17.122828 0.0201337405,17.7319651 L0.0201337405,21.5273575 C0.0201337405,22.3239213 0.207560525,22.9330584 0.816697581,23.3079119 C1.19155115,23.6827655 1.80068821,23.917049 2.40982526,23.917049 L21.3399307,23.917049 C22.1364945,23.917049 22.7456316,23.7296222 23.1204852,23.3079119 C23.4953387,22.8862017 23.7296222,22.3239213 23.7296222,21.7147843 L23.7296222,17.7319651 C23.7296222,17.122828 23.5421954,16.5605477 23.1204852,16.1388374 C22.8862017,15.7639838 22.3239213,15.5297003 21.5273575,15.5297003 Z M13.9365726,20.3090834 C13.7491458,20.4965102 13.7491458,20.4965102 13.5617191,20.4965102 L10.5628905,20.4965102 C10.3754637,20.4965102 10.1880369,20.4965102 9.95375342,20.3090834 C9.95375342,20.1216566 9.76632663,19.9342298 9.76632663,19.6999463 C9.76632663,19.5125195 9.76632663,19.3250927 9.95375342,19.3250927 C10.1411802,19.137666 10.1411802,19.137666 10.5628905,19.137666 L13.3742923,19.137666 C13.5617191,19.137666 13.7491458,19.137666 13.7491458,19.3250927 C13.9365726,19.5125195 13.9365726,19.5125195 13.9365726,19.6999463 C14.1708561,19.9342298 13.9365726,20.1216566 13.9365726,20.3090834 Z M23.3079119,6.20521768 C22.9330584,5.83036411 22.3239213,5.59608062 21.5273575,5.59608062 L2.40982526,5.59608062 C1.61326142,5.59608062 1.00412437,5.78350741 0.629270796,6.20521768 C0.254417227,6.62692795 0.0201337405,7.00178152 0.0201337405,7.61091858 L0.0201337405,11.5937378 C0.0201337405,12.2028749 0.207560525,12.7651552 0.629270796,13.1868655 C1.05098107,13.6085758 1.61326142,13.7960025 2.40982526,13.7960025 L21.5273575,13.7960025 C22.3239213,13.7960025 22.9330584,13.6085758 23.3079119,13.1868655 C23.6827655,12.7651552 23.917049,12.2028749 23.917049,11.5937378 L23.917049,7.61091858 C23.917049,7.00178152 23.6827655,6.58007125 23.3079119,6.20521768 Z M13.3742923,10.3754637 L10.5628905,10.3754637 C10.3754637,10.3754637 10.1880369,10.3754637 10.1880369,10.1880369 C10.0006101,10.0006101 10.0006101,10.0006101 9.81318334,9.57889985 C9.81318334,9.39147306 9.81318334,9.20404628 10.0006101,9.20404628 C10.1880369,9.0166195 10.1880369,9.0166195 10.6097472,9.0166195 L13.3742923,9.0166195 C13.5617191,9.0166195 13.7491458,9.0166195 13.7491458,9.20404628 C13.9365726,9.20404628 14.1239994,9.39147306 14.1239994,9.57889985 C13.9365726,10.1880369 13.7491458,10.3754637 13.3742923,10.3754637 L13.3742923,10.3754637 Z"
              id="形状" fill="#157efa" fill-rule="nonzero"></path>
    </g>
</svg>