<?xml version="1.0" encoding="UTF-8"?>
<svg width="24px" height="24px" viewBox="0 0 24 24" version="1.1" xmlns="http://www.w3.org/2000/svg"
     xmlns:xlink="http://www.w3.org/1999/xlink">
    <!-- Generator: Sketch 59.1 (86144) - https://sketch.com -->
    <title>Icon-Currency</title>
    <desc>Created with Sketch.</desc>
    <g id="Icon-Currency" stroke="none" stroke-width="1" fill="none" fill-rule="evenodd">
        <path d="M21.6911671,18.5736038 L21.6911671,21.4984254 C18.4291994,23.1326593 15.1989637,23.9497763 12.0004603,23.9497763 C8.80195681,23.9497763 5.6988591,23.1326593 2.69116713,21.4984254 L2.69116713,21.4984254 L2.67787434,18.5736038 C5.92914339,19.9965539 9.09581006,20.708029 12.1778743,20.708029 C15.2599386,20.708029 18.4310362,19.9965539 21.6911671,18.5736038 L21.6911671,18.5736038 Z M21.6778743,13.763429 L21.6911671,16.763429 C18.4266945,18.347544 15.1963055,19.1396015 12,19.1396015 C8.80369453,19.1396015 5.70075024,18.347544 2.69116713,16.763429 L2.69116713,16.763429 L2.69116713,13.763429 C5.80397362,15.1961412 8.91150226,15.9124973 12.0137531,15.9124973 C15.1160039,15.9124973 18.3373776,15.1961412 21.6778743,13.763429 L21.6778743,13.763429 Z M21.6778743,8.76342898 L21.6911671,11.763429 C18.55449,13.347544 15.3833924,14.1396015 12.1778743,14.1396015 C8.97235631,14.1396015 5.81012057,13.347544 2.69116713,11.763429 L2.69116713,11.763429 L2.67787434,8.76342898 C6.0114467,10.2671167 9.17811337,11.0009522 12.1778743,10.9649353 C15.1776353,10.9289183 18.344302,10.1950829 21.6778743,8.76342898 L21.6778743,8.76342898 Z M12.1859861,-0.00860529718 C17.4326912,-0.00860529718 21.6859861,2.00611333 21.6859861,4.4913947 C21.6859861,6.97667608 17.4326912,8.9913947 12.1859861,8.9913947 C6.93928097,8.9913947 2.68598609,6.97667608 2.68598609,4.4913947 C2.68598609,2.00611333 6.93928097,-0.00860529718 12.1859861,-0.00860529718 Z"
              id="形状结合" fill="#157efa"></path>
    </g>
</svg>