<?xml version="1.0" encoding="UTF-8"?>
<svg width="24px" height="24px" viewBox="0 0 24 24" version="1.1" xmlns="http://www.w3.org/2000/svg"
     xmlns:xlink="http://www.w3.org/1999/xlink">
    <!-- Generator: Sketch 59.1 (86144) - https://sketch.com -->
    <title>Icon-Book</title>
    <desc>Created with Sketch.</desc>
    <g id="Icon-Book" stroke="none" stroke-width="1" fill="none" fill-rule="evenodd">
        <path d="M20.6472244,2.83229812 C20.2000194,2.83229812 19.9018828,3.13043477 19.9018828,3.57763973 L19.9018828,20.8695652 C19.9018828,21.6149068 19.1565412,22.3602484 18.4111996,22.3602484 L5.29318712,22.3602484 C4.39877717,22.3602484 3.35529891,21.6149068 3.35529891,20.8695652 L3.35529891,19.2298137 C3.35529891,18.4844721 4.24970886,18.0372671 5.14411878,18.0372671 L17.6658579,18.0372671 C18.1130629,18.0372671 18.4111995,17.7391304 18.4111995,17.2919255 L18.4111995,2.68322981 C18.4111995,1.04347826 17.2186529,0 15.4298331,0 L5.29318712,0 C3.65343556,0 2.01368401,0.894409945 2.01368401,2.68322981 L2.01368401,21.0186335 C2.01368401,21.0186335 2.01368401,21.0186335 2.01368401,21.1677019 C2.01368401,21.3167702 2.01368401,21.3167702 2.01368401,21.4658385 C2.16275232,22.8074534 3.50436723,23.8509317 4.84598213,24 C4.84598213,24 4.99505045,24 4.99505045,24 C4.99505045,24 4.99505045,24 5.14411876,24 L18.4111995,24 C20.0509511,24 21.392566,22.6583851 21.392566,21.1677019 L21.392566,3.57763976 C21.392566,3.27950311 21.0944293,2.83229812 20.6472244,2.83229812 Z M17.8149262,19.5279503 L5.59132377,19.5279503 C5.1441188,19.5279503 4.84598216,19.826087 4.84598216,20.2732919 C4.84598216,20.7204969 5.1441188,21.0186335 5.59132377,21.0186335 L17.8149263,21.0186335 C18.2621312,21.0186335 18.5602679,20.7204969 18.5602679,20.2732919 C18.5602679,19.826087 18.2621312,19.5279503 17.8149262,19.5279503 Z"
              id="形状" fill="#157efa" fill-rule="nonzero"></path>
    </g>
</svg>